<svg width="15" height="18" viewBox="0 0 15 18" fill="none" xmlns="http://www.w3.org/2000/svg">
<path d="M2.27024 14.3694H14.4145C14.4517 14.3694 14.4877 14.364 14.5223 14.3557C14.5251 14.3557 14.5274 14.3561 14.5301 14.3561C14.7894 14.3561 15 14.1437 15 13.8818V0.474375C15 0.212518 14.7894 0 14.5301 0H14.4154H3.0217H2.2709C1.02028 0 0.00300771 1.02728 0.00300771 2.28958C0.00300771 2.30651 0.00630696 2.32258 0.00793719 2.33892C0.00630696 3.50497 -0.00801585 14.2195 0.00630696 15.628C0.00541421 15.6556 0.00207606 15.6825 0.00207606 15.7103C0.00207606 16.9241 0.943423 17.9177 2.12748 17.9928C2.15124 17.9965 2.17452 18 2.19917 18H14.5301C14.7894 18 15 17.7876 15 17.5256V15.74C15 15.4782 14.7893 15.2656 14.5301 15.2656C14.2709 15.2656 14.0602 15.4783 14.0602 15.74V17.0513H2.27024C1.55624 17.0513 0.973388 16.4789 0.944742 15.7652C0.945441 15.7525 0.947731 15.7405 0.947498 15.7275C0.947032 15.7067 0.946334 15.6742 0.945868 15.6311C0.986934 14.9287 1.56439 14.3694 2.27024 14.3694ZM2.59062 2.28958C2.59062 2.02772 2.80112 1.81521 3.06048 1.81521C3.31984 1.81521 3.53034 2.02772 3.53034 2.28958V11.9254C3.53034 12.1872 3.31984 12.3998 3.06048 12.3998C2.80112 12.3998 2.59062 12.1871 2.59062 11.9254V2.28958Z" fill="#2E363F"/>
</svg>
