<svg width="19" height="20" viewBox="0 0 19 20" fill="none" xmlns="http://www.w3.org/2000/svg">
<path d="M0.909111 14.5455H1.81821V7.27273C1.81821 3.26273 5.08095 0 9.09095 0C13.1009 0 16.3637 3.26273 16.3637 7.27273V14.5455H17.2728C17.7755 14.5455 18.1819 14.9518 18.1819 15.4546C18.1819 15.9573 17.7755 16.3637 17.2728 16.3637H16.3637H12.7273C12.7273 18.3691 11.0964 20 9.09095 20C7.08548 20 5.45458 18.3691 5.45458 16.3636H1.81821H0.909111C0.406378 16.3636 9.53674e-06 15.9573 9.53674e-06 15.4545C9.53674e-06 14.9518 0.406416 14.5455 0.909111 14.5455ZM9.09095 18.1818C10.0937 18.1818 10.9091 17.3664 10.9091 16.3637H7.27275C7.27278 17.3664 8.08821 18.1818 9.09095 18.1818ZM3.63642 14.5455H5.45458H12.7273H14.5455V7.27273C14.5455 4.26457 12.0991 1.8182 9.09095 1.8182C6.08278 1.8182 3.63642 4.26457 3.63642 7.27273V14.5455Z" fill="#25364F"/>
</svg>
