<svg width="28" height="28" viewBox="0 0 28 28" fill="none" xmlns="http://www.w3.org/2000/svg">
<g clip-path="url(#clip0)">
<path d="M27.9995 18.3018V21.4897C27.9995 22.5724 25.1123 23.4747 21.5635 23.4747C18.0146 23.4747 15.1876 22.6025 15.1876 21.5198V21.159L15.1274 18.6326H15.1575C15.6387 19.565 18.2853 20.2868 21.4732 20.2868C24.6611 20.2868 27.9394 19.3846 27.9394 18.3018H27.9995V18.3018Z" fill="#E2A63B"/>
<path d="M21.3835 6.45166V9.60952H21.3233C21.3233 10.7223 18.3459 11.5945 14.8271 11.5945C13.4738 11.6245 12.0903 11.4742 10.767 11.1434L10.7069 11.2035C10.0452 10.6622 9.29333 10.2411 8.48132 9.97046V9.9103L8.39111 6.57197C8.60163 7.5945 11.3986 8.40652 14.7971 8.40652C18.1956 8.40652 21.3233 7.53435 21.3233 6.45166H21.3835Z" fill="#F4B844"/>
<path d="M21.3825 6.51109C21.3825 7.59378 18.4051 8.46595 14.8562 8.46595C11.3074 8.46595 8.6307 7.65393 8.42019 6.6314C8.42019 6.60135 8.39014 6.54119 8.39014 6.51109C8.39014 5.4284 11.2773 4.52612 14.8563 4.52612C18.4351 4.49607 21.3825 5.39829 21.3825 6.51109Z" fill="#FEDB41"/>
<path d="M15.1591 18.631L15.129 17.9693L15.0688 15.2626C15.2794 16.2852 18.0763 17.0972 21.4748 17.0972C24.8733 17.0972 27.8808 16.225 27.971 15.1724H28.0011V18.3002H27.9409C27.9409 19.3829 25.0236 20.2851 21.4748 20.2851C17.926 20.2851 15.6403 19.5633 15.1591 18.631Z" fill="#F4B844"/>
<path d="M10.8564 20.6463C11.6685 19.8944 12.3001 18.932 12.6308 17.8794H12.7812C13.4429 17.9396 14.1045 17.9696 14.8263 17.9696H15.127V18.6313L15.1872 21.1576H14.8564C13.5331 21.1876 12.2399 21.0373 10.9467 20.7365L10.8564 20.6463Z" fill="#E2A63B"/>
<path d="M15.1583 15.0237V15.1741L15.2185 17.9711H14.9177C14.1658 17.9711 13.4741 17.941 12.8125 17.8809H12.6621C12.8726 17.2493 12.9628 16.5877 12.9628 15.926C12.9628 15.4749 12.9027 15.0538 12.8125 14.6328H12.9628C13.5944 14.693 14.226 14.723 14.9177 14.723L15.1884 14.8734C15.1583 14.9335 15.1583 14.9936 15.1583 15.0237Z" fill="#F4B844"/>
<path d="M10.7671 11.1447C12.0904 11.4755 13.4738 11.6259 14.8273 11.5958C18.346 11.5958 21.3234 10.7236 21.3234 9.61084H21.3836V13.1597C18.1054 13.1597 15.4288 13.9417 15.0979 14.9341L14.8273 14.7837C14.1656 14.7837 13.5341 14.7537 12.9326 14.6935H12.7822C12.5115 13.31 11.7897 12.077 10.707 11.1747L10.7671 11.1447Z" fill="#E2A63B"/>
<path d="M12.8422 14.6918C12.5415 13.3084 11.7896 12.0453 10.7069 11.1129C10.0453 10.5114 9.2633 10.0904 8.42123 9.84979C7.81973 9.63927 7.15808 9.54906 6.52653 9.54906C2.94758 9.5189 0.030284 12.376 0.000234868 15.9549C-0.0298142 19.5338 2.82727 22.4511 6.40622 22.4812C8.06036 22.4812 9.62423 21.8797 10.8573 20.7669C11.6994 19.9849 12.331 18.9925 12.6618 17.9097C12.8723 17.2782 12.9625 16.6466 12.9625 15.9849C12.9626 15.564 12.8422 15.1129 12.8422 14.6918Z" fill="#FEDB41"/>
<path d="M27.971 15.1115V15.1717C27.8808 16.2243 24.9635 17.0965 21.4748 17.0965C17.9861 17.0965 15.2794 16.2845 15.0688 15.262V15.1116C15.0688 15.0514 15.0688 14.9913 15.0989 14.9311C15.4297 13.9386 18.1064 13.1567 21.3846 13.1567H21.4748C25.0237 13.1567 27.971 14.0289 27.971 15.1115Z" fill="#FEDB41"/>
</g>
<defs>
<clipPath id="clip0">
<rect width="28" height="28" fill="white"/>
</clipPath>
</defs>
</svg>
