<svg width="22" height="22" viewBox="0 0 22 22" fill="none" xmlns="http://www.w3.org/2000/svg">
<path d="M20.1323 13.1731C19.9545 12.7332 19.4535 12.5205 19.0135 12.6985C18.5735 12.8764 18.361 13.3773 18.5388 13.8173L19.551 16.3209L16.545 14.9958C16.3274 14.8999 16.0798 14.8984 15.861 14.9917C14.8337 15.43 13.7332 15.6523 12.5901 15.6523C7.98931 15.6523 4.8987 12.05 4.8987 8.68551C4.8987 4.84403 8.34904 1.71875 12.5901 1.71875C16.8311 1.71875 20.2815 4.84403 20.2815 8.68551C20.2815 8.98522 20.2536 9.3441 20.205 9.67006C20.1349 10.1395 20.4587 10.5768 20.9281 10.6468C21.3976 10.717 21.8349 10.3931 21.9049 9.92366C21.9664 9.51159 22.0002 9.07185 22.0002 8.68551C22.0002 6.35103 21.0117 4.16057 19.2166 2.51766C17.4428 0.894135 15.0894 0 12.5901 0C10.0908 0 7.73747 0.894135 5.96359 2.51762C4.35949 3.98577 3.40008 5.89135 3.21399 7.94607C1.19631 9.28222 0.000272793 11.4233 0.000272793 13.7296C0.000272793 15.1702 0.454151 16.5371 1.31812 17.7135L0.0629211 20.8185C-0.0681763 21.1427 0.0103275 21.5141 0.261479 21.7576C0.425147 21.9163 0.640807 22 0.859818 22C0.976822 22 1.09481 21.9761 1.20627 21.927L4.82548 20.3315C5.7359 20.6704 6.69827 20.842 7.69162 20.842C7.71311 20.842 7.7342 20.8403 7.7553 20.8388C9.19205 20.8279 10.5888 20.45 11.7986 19.7428C12.8822 19.1092 13.7735 18.239 14.3984 17.2112C15.0085 17.1016 15.6048 16.9361 16.1836 16.7149L20.7942 18.7473C20.9057 18.7964 21.0236 18.8203 21.1406 18.8203C21.3597 18.8203 21.5754 18.7366 21.739 18.5779C21.9902 18.3344 22.0687 17.9631 21.9376 17.6388L20.1323 13.1731ZM7.69171 19.1211C7.67998 19.1211 7.66855 19.1223 7.6569 19.1228C6.7794 19.1183 5.9348 18.9459 5.14603 18.6093C4.92736 18.516 4.67973 18.5175 4.46214 18.6134L2.44962 19.5006L3.09883 17.8946C3.21884 17.5977 3.1638 17.2587 2.95609 17.015C2.14677 16.0656 1.71902 14.9295 1.71902 13.7296C1.71902 12.3562 2.29673 11.055 3.30753 10.0684C3.62223 11.7839 4.51018 13.425 5.84964 14.7141C7.51644 16.3183 9.72116 17.2476 12.1018 17.3595C10.9841 18.4597 9.38467 19.1211 7.69171 19.1211Z" fill="#25364F"/>
<path d="M12.5469 9.58203C13.0215 9.58203 13.4062 9.19727 13.4062 8.72265C13.4062 8.24804 13.0215 7.86328 12.5469 7.86328C12.0723 7.86328 11.6875 8.24804 11.6875 8.72265C11.6875 9.19727 12.0723 9.58203 12.5469 9.58203Z" fill="#25364F"/>
<path d="M15.9844 9.58203C16.459 9.58203 16.8437 9.19727 16.8437 8.72265C16.8437 8.24804 16.459 7.86328 15.9844 7.86328C15.5098 7.86328 15.125 8.24804 15.125 8.72265C15.125 9.19727 15.5098 9.58203 15.9844 9.58203Z" fill="#25364F"/>
<path d="M9.10937 9.58203C9.58399 9.58203 9.96875 9.19727 9.96875 8.72265C9.96875 8.24804 9.58399 7.86328 9.10937 7.86328C8.63475 7.86328 8.25 8.24804 8.25 8.72265C8.25 9.19727 8.63475 9.58203 9.10937 9.58203Z" fill="#25364F"/>
</svg>
