<svg width="13" height="13" viewBox="0 0 13 13" fill="none" xmlns="http://www.w3.org/2000/svg">
<path d="M4.3748 6.8321C4.3748 6.67696 4.24896 6.55127 4.09369 6.55127H3.11274C2.95765 6.55127 2.83179 6.67696 2.83179 6.8321V7.81292C2.83179 7.96827 2.95765 8.094 3.11274 8.094H4.09369C4.24896 8.094 4.3748 7.96827 4.3748 7.81292V6.8321Z" fill="#9BA0A8"/>
<path d="M6.82631 6.8321C6.82631 6.67696 6.70044 6.55127 6.54548 6.55127H5.5644C5.40931 6.55127 5.28345 6.67696 5.28345 6.8321V7.81292C5.28345 7.96827 5.40931 8.094 5.5644 8.094H6.54548C6.70044 8.094 6.82631 7.96827 6.82631 7.81292V6.8321Z" fill="#9BA0A8"/>
<path d="M9.27812 6.8321C9.27812 6.67696 9.15226 6.55127 8.99717 6.55127H8.01621C7.86095 6.55127 7.73511 6.67696 7.73511 6.8321V7.81292C7.73511 7.96827 7.86095 8.094 8.01621 8.094H8.99717C9.15226 8.094 9.27812 7.96827 9.27812 7.81292V6.8321Z" fill="#9BA0A8"/>
<path d="M4.3748 9.28728C4.3748 9.13189 4.24896 9.0063 4.09369 9.0063H3.11274C2.95765 9.0063 2.83179 9.13189 2.83179 9.28728V10.2679C2.83179 10.4232 2.95765 10.5489 3.11274 10.5489H4.09369C4.24896 10.5489 4.3748 10.4231 4.3748 10.2679V9.28728Z" fill="#9BA0A8"/>
<path d="M6.82631 9.28728C6.82631 9.13189 6.70044 9.0063 6.54548 9.0063H5.5644C5.40931 9.0063 5.28345 9.13189 5.28345 9.28728V10.2679C5.28345 10.4232 5.40931 10.5489 5.5644 10.5489H6.54548C6.70044 10.5489 6.82631 10.4231 6.82631 10.2679V9.28728Z" fill="#9BA0A8"/>
<path d="M9.27812 9.28728C9.27812 9.13189 9.15226 9.0063 8.99729 9.0063H8.01621C7.86095 9.0063 7.73511 9.13189 7.73511 9.28728V10.2679C7.73511 10.4232 7.86095 10.5489 8.01621 10.5489H8.99729C9.15226 10.5489 9.27812 10.4231 9.27812 10.2679V9.28728Z" fill="#9BA0A8"/>
<path d="M11.0322 1.37751V2.87564C11.0322 3.55278 10.4829 4.09845 9.80585 4.09845H9.03223C8.35514 4.09845 7.79853 3.55278 7.79853 2.87564V1.37213H4.3116V2.87564C4.3116 3.55278 3.75502 4.09845 3.07803 4.09845H2.30426C1.62724 4.09845 1.07794 3.55278 1.07794 2.87564V1.37751C0.486227 1.39535 0 1.88497 0 2.48679V11.2666C0 11.8797 0.496959 12.3832 1.11009 12.3832H11C11.6123 12.3832 12.1101 11.8786 12.1101 11.2666V2.48679C12.1101 1.88497 11.6239 1.39535 11.0322 1.37751ZM10.6729 10.7198C10.6729 10.9848 10.4581 11.1997 10.193 11.1997H1.89602C1.63095 11.1997 1.41611 10.9848 1.41611 10.7198V6.18475C1.41611 5.91968 1.63092 5.70471 1.89602 5.70471H10.193C10.458 5.70471 10.6729 5.91968 10.6729 6.18475L10.6729 10.7198Z" fill="#9BA0A8"/>
<path d="M2.30048 3.29678H3.0657C3.29797 3.29678 3.4863 3.10873 3.4863 2.87646V0.420466C3.4863 0.188174 3.29797 0 3.0657 0H2.30048C2.06818 0 1.87988 0.188174 1.87988 0.420466V2.87646C1.87988 3.10873 2.06818 3.29678 2.30048 3.29678Z" fill="#9BA0A8"/>
<path d="M9.02335 3.29678H9.78858C10.0207 3.29678 10.209 3.10873 10.209 2.87646V0.420466C10.209 0.188174 10.0207 0 9.78858 0H9.02335C8.79111 0 8.60278 0.188174 8.60278 0.420466V2.87646C8.60278 3.10873 8.79111 3.29678 9.02335 3.29678Z" fill="#9BA0A8"/>
</svg>
