<svg width="12" height="14" viewBox="0 0 12 14" fill="none" xmlns="http://www.w3.org/2000/svg">
<path d="M10.2168 1.75017H7.82561V1.31263C7.82561 0.587675 7.24167 0 6.52134 0H4.78231C4.06198 0 3.47805 0.587675 3.47805 1.31263V1.75017H1.08689C0.486628 1.75017 0 2.23992 0 2.84403V3.71911C0 3.96077 0.194635 4.15666 0.434756 4.15666H10.8689C11.109 4.15666 11.3037 3.96077 11.3037 3.71911V2.84403C11.3037 2.23992 10.817 1.75017 10.2168 1.75017ZM4.34756 1.31263C4.34756 1.07143 4.54266 0.875086 4.78231 0.875086H6.52134C6.761 0.875086 6.95609 1.07143 6.95609 1.31263V1.75017H4.34756V1.31263Z" fill="#999999"/>
<path d="M0.826773 5.03027C0.749197 5.03027 0.68738 5.09552 0.691075 5.17351L1.04975 12.7496C1.0829 13.4508 1.65515 13.9999 2.35239 13.9999H8.9547C9.65194 13.9999 10.2242 13.4508 10.2573 12.7496L10.616 5.17351C10.6197 5.09552 10.5579 5.03027 10.4803 5.03027H0.826773ZM7.39257 6.12413C7.39257 5.88239 7.58712 5.68659 7.82732 5.68659C8.06752 5.68659 8.26208 5.88239 8.26208 6.12413V11.8122C8.26208 12.0539 8.06752 12.2497 7.82732 12.2497C7.58712 12.2497 7.39257 12.0539 7.39257 11.8122V6.12413ZM5.21879 6.12413C5.21879 5.88239 5.41334 5.68659 5.65354 5.68659C5.89374 5.68659 6.0883 5.88239 6.0883 6.12413V11.8122C6.0883 12.0539 5.89374 12.2497 5.65354 12.2497C5.41334 12.2497 5.21879 12.0539 5.21879 11.8122V6.12413ZM3.04501 6.12413C3.04501 5.88239 3.23956 5.68659 3.47976 5.68659C3.71997 5.68659 3.91452 5.88239 3.91452 6.12413V11.8122C3.91452 12.0539 3.71997 12.2497 3.47976 12.2497C3.23956 12.2497 3.04501 12.0539 3.04501 11.8122V6.12413Z" fill="#999999"/>
</svg>
