<svg width="15" height="14" viewBox="0 0 15 14" fill="none" xmlns="http://www.w3.org/2000/svg">
<path d="M14.4154 5.08637L13.6812 4.10742L13.2729 6.96514C13.2355 7.22692 13.1119 7.47411 12.9249 7.66113L7.89787 12.6882C7.45939 13.1267 6.87572 13.3682 6.25442 13.3682C6.06873 13.3682 5.88654 13.3462 5.71045 13.3042C5.97787 13.7223 6.4459 14.0003 6.97798 14.0003H12.9935C13.8228 14.0003 14.4974 13.3257 14.4974 12.4964V5.33246C14.4974 5.24373 14.4686 5.15738 14.4154 5.08637Z" fill="#13E1B0"/>
<path d="M8.96093 6.81249C9.18745 6.81249 9.37108 6.62886 9.37108 6.40234C9.37108 6.17582 9.18745 5.99219 8.96093 5.99219C8.73441 5.99219 8.55078 6.17582 8.55078 6.40234C8.55078 6.62886 8.73441 6.81249 8.96093 6.81249Z" fill="#13E1B0"/>
<path d="M4.32617 6.81249C4.55269 6.81249 4.73632 6.62886 4.73632 6.40234C4.73632 6.17582 4.55269 5.99219 4.32617 5.99219C4.09965 5.99219 3.91602 6.17582 3.91602 6.40234C3.91602 6.62886 4.09965 6.81249 4.32617 6.81249Z" fill="#13E1B0"/>
<path d="M7.32023 12.1076L12.3473 7.0806C12.41 7.01785 12.4507 6.93645 12.4633 6.84859L13.0433 2.78829C13.0616 2.66049 13.0186 2.53154 12.9273 2.44026L12.0573 1.5702L10.8972 2.73029L11.1872 3.02033C11.3474 3.18048 11.3474 3.44018 11.1872 3.60036C11.1071 3.68045 11.0022 3.72051 10.8972 3.72051C10.7923 3.72051 10.6873 3.68045 10.6072 3.60036L9.44711 2.44026C9.28693 2.28011 9.28693 2.02041 9.44711 1.86023C9.60726 1.70008 9.86697 1.70008 10.0271 1.86023L10.3172 2.15026L11.4772 0.990161L10.6072 0.120094C10.5159 0.028794 10.387 -0.0140258 10.2592 0.00407555L6.19882 0.584138C6.11097 0.596689 6.02957 0.637403 5.96681 0.700157L0.939784 5.72719C0.353405 6.31354 0.353405 7.26766 0.939784 7.85401L5.19341 12.1076C5.48658 12.4008 5.87171 12.5474 6.25682 12.5474C6.64192 12.5474 7.02705 12.4008 7.32023 12.1076ZM8.96368 5.17345C9.64215 5.17345 10.1941 5.72544 10.1941 6.40391C10.1941 7.08238 9.64215 7.63436 8.96368 7.63436C8.28521 7.63436 7.73323 7.08238 7.73323 6.40391C7.73323 5.72544 8.28521 5.17345 8.96368 5.17345ZM4.32334 7.63436C3.64487 7.63436 3.09289 7.08238 3.09289 6.40391C3.09289 5.72544 3.64487 5.17345 4.32334 5.17345C5.00181 5.17345 5.55379 5.72544 5.55379 6.40391C5.55379 7.08238 5.00184 7.63436 4.32334 7.63436ZM5.67684 9.71437C5.63385 9.71437 5.5901 9.70756 5.54709 9.69324C5.3322 9.6216 5.21607 9.38934 5.28769 9.17442L7.22114 3.37399C7.29278 3.15909 7.52506 3.04297 7.73995 3.11458C7.95484 3.18622 8.07097 3.41847 7.99936 3.63339L6.06591 9.43383C6.00859 9.60566 5.84855 9.71437 5.67684 9.71437Z" fill="#13E1B0"/>
<path d="M12.9276 0.700148C13.0878 0.539998 13.0878 0.28029 12.9276 0.120113C12.7675 -0.0400376 12.5078 -0.0400376 12.3476 0.120113L11.4775 0.99018L12.0576 1.57022L12.9276 0.700148Z" fill="#13E1B0"/>
</svg>
