<svg width="12" height="12" viewBox="0 0 12 12" fill="none" xmlns="http://www.w3.org/2000/svg">
<g clip-path="url(#clip0)">
<path d="M7.41016 2.01489L0.80759 8.61794C0.774373 8.65125 0.750388 8.69332 0.738966 8.73853L0.00713451 11.6759C-0.0147567 11.7644 0.0112272 11.8584 0.0757586 11.9229C0.124585 11.9718 0.191116 11.9988 0.259169 11.9988C0.280013 11.9988 0.301333 11.9962 0.322082 11.991L3.2595 11.2591C3.30528 11.2476 3.34687 11.2238 3.38009 11.1905L9.98323 4.58796L7.41016 2.01489Z" fill="#999999"/>
<path d="M11.6195 1.11493L10.8845 0.379955C10.3933 -0.111264 9.53718 -0.110789 9.04654 0.379955L8.14624 1.28025L10.7192 3.85323L11.6195 2.95293C11.8649 2.70765 12 2.38119 12 2.03398C12 1.68676 11.8649 1.3603 11.6195 1.11493Z" fill="#999999"/>
</g>
<defs>
<clipPath id="clip0">
<rect width="12" height="12" fill="white"/>
</clipPath>
</defs>
</svg>
