<svg width="32" height="32" viewBox="0 0 32 32" fill="none" xmlns="http://www.w3.org/2000/svg">
<path d="M16 32C24.8366 32 32 24.8366 32 16C32 7.16344 24.8366 0 16 0C7.16344 0 0 7.16344 0 16C0 24.8366 7.16344 32 16 32Z" fill="#FFD93B"/>
<path d="M16.0003 26.2846C11.3213 26.2846 7.2443 23.1156 6.0863 18.5796C5.9953 18.2226 6.2103 17.8596 6.5673 17.7686C6.9223 17.6756 7.2863 17.8926 7.3773 18.2496C8.3853 22.1956 11.9303 24.9516 15.9993 24.9516C20.0683 24.9516 23.6143 22.1956 24.6213 18.2496C24.7113 17.8926 25.0743 17.6756 25.4323 17.7686C25.7893 17.8596 26.0043 18.2226 25.9133 18.5796C24.7563 23.1156 20.6793 26.2846 16.0003 26.2846Z" fill="#3E4347"/>
<path d="M31.9999 15.9999C31.9999 24.8399 24.8349 31.9999 15.9999 31.9999C10.9699 31.9999 6.47992 29.6799 3.54492 26.0449C6.28992 28.2649 9.78492 29.5899 13.5899 29.5899C22.4249 29.5899 29.5899 22.4299 29.5899 13.5899C29.5899 9.78492 28.2649 6.28992 26.0449 3.54492C29.6749 6.47992 31.9999 10.9699 31.9999 15.9999Z" fill="#F4C534"/>
<path d="M10.8329 16.6835C12.1871 16.6835 13.2849 15.3788 13.2849 13.7695C13.2849 12.1601 12.1871 10.8555 10.8329 10.8555C9.47866 10.8555 8.38086 12.1601 8.38086 13.7695C8.38086 15.3788 9.47866 16.6835 10.8329 16.6835Z" fill="#3E4347"/>
<path d="M11.9394 13.1425C11.7484 13.2925 11.4344 13.2185 11.2334 12.9745C11.0324 12.7305 11.0224 12.4035 11.2134 12.2535C11.4034 12.0965 11.7184 12.1705 11.9184 12.4145C12.1204 12.6655 12.1224 12.9865 11.9394 13.1425Z" fill="#5A5F63"/>
<path d="M21.1698 16.6835C22.524 16.6835 23.6218 15.3788 23.6218 13.7695C23.6218 12.1601 22.524 10.8555 21.1698 10.8555C19.8156 10.8555 18.7178 12.1601 18.7178 13.7695C18.7178 15.3788 19.8156 16.6835 21.1698 16.6835Z" fill="#3E4347"/>
</svg>
