<svg width="14" height="15" viewBox="0 0 14 15" fill="none" xmlns="http://www.w3.org/2000/svg">
<path d="M5.36773 9.15657L5.14952 10.4526C5.11978 10.6298 5.19248 10.8084 5.33754 10.9141C5.48282 11.0196 5.67574 11.0338 5.83447 10.9506L6.99972 10.3423L8.16497 10.9507C8.23391 10.9865 8.30946 11.0045 8.38421 11.0045C8.4821 11.0045 8.57975 10.9738 8.66214 10.9142C8.80731 10.8085 8.88024 10.6299 8.85027 10.4527L8.63228 9.15668L9.57055 8.23631C9.69885 8.11062 9.74455 7.92306 9.68951 7.75236C9.63424 7.58178 9.48634 7.45689 9.3088 7.43068L8.00864 7.23788L7.42305 6.06089C7.34362 5.90022 7.17908 5.79846 6.99961 5.79846C6.82048 5.79846 6.65605 5.90022 6.57594 6.06089L5.99092 7.23788L4.69076 7.43057C4.51288 7.45678 4.36566 7.58166 4.31028 7.75225C4.2549 7.92295 4.30048 8.11073 4.42901 8.23619L5.36773 9.15657Z" fill="#FE4D5F"/>
<path d="M12.5876 1.512H11.0988V0.686206C11.0988 0.307209 10.7916 0 10.4125 0H10.3037C9.9247 0 9.6176 0.307209 9.6176 0.686206V1.512H4.36485V0.686206C4.36485 0.307209 4.05764 0 3.67876 0H3.56982C3.19083 0 2.88373 0.307209 2.88373 0.686206V1.512H1.4123C0.633675 1.512 0 2.14545 0 2.9243V12.8102C0 13.5886 0.633675 14.2225 1.4123 14.2225H12.5877C13.3662 14.2225 14 13.5888 14 12.8102V2.9243C13.9999 2.14545 13.3661 1.512 12.5876 1.512ZM12.4033 12.626H1.59655V4.93039H12.4033V12.626Z" fill="#FE4D5F"/>
</svg>
