<svg width="15" height="15" viewBox="0 0 15 15" fill="none" xmlns="http://www.w3.org/2000/svg">
<path d="M7.5293 0C3.40986 0 0 3.35127 0 7.4707C0 11.5901 3.40986 15 7.5293 15C11.6487 15 15 11.5901 15 7.4707C15 3.35127 11.6487 0 7.5293 0ZM8.4082 11.4844C8.4082 11.9689 8.01357 12.3633 7.5293 12.3633C7.04473 12.3633 6.65039 11.9689 6.65039 11.4844V7.03125C6.65039 6.54668 7.04473 6.15234 7.5293 6.15234C8.01357 6.15234 8.4082 6.54668 8.4082 7.03125V11.4844ZM7.5293 4.39453C7.04473 4.39453 6.65039 4.0002 6.65039 3.51562C6.65039 3.03105 7.04473 2.63672 7.5293 2.63672C8.01357 2.63672 8.4082 3.03105 8.4082 3.51562C8.4082 4.0002 8.01357 4.39453 7.5293 4.39453Z" fill="#A6A6A6"/>
</svg>
