<svg width="24" height="24" viewBox="0 0 24 24" fill="none" xmlns="http://www.w3.org/2000/svg">
<path d="M21.8914 5.67183H11.581L9.85562 0.481309C9.76009 0.19392 9.49126 0 9.18841 0H2.11034C0.947235 0 0.000976562 0.946258 0.000976562 2.10936V16.2186C0.000976562 17.3817 0.947235 18.328 2.11034 18.328H9.85857L11.5699 23.5047C11.6645 23.8079 11.9449 24 12.2416 24C12.2432 24 12.2449 23.9998 12.2465 23.9998H21.8915C23.0546 23.9998 24.0008 23.0536 24.0008 21.8905V7.78119C24.0008 6.61809 23.0545 5.67183 21.8914 5.67183ZM2.11034 16.9217C1.72264 16.9217 1.40722 16.6063 1.40722 16.2186V2.10936C1.40722 1.72166 1.72264 1.40624 2.11034 1.40624H8.68117L13.8386 16.9217C11.2047 16.9217 4.71103 16.9217 2.11034 16.9217ZM13.7225 18.328L12.3444 21.3674L11.3397 18.328H13.7225ZM22.5946 21.8905C22.5946 22.2782 22.2791 22.5936 21.8914 22.5936H13.3325L15.4537 17.9152C15.5298 17.7474 15.5334 17.5616 15.4805 17.4028L12.0485 7.07807H21.8914C22.2791 7.07807 22.5946 7.39349 22.5946 7.78119V21.8905Z" fill="#25364F"/>
<path d="M9.18794 8.48435H7.07858C6.69027 8.48435 6.37546 8.79916 6.37546 9.18747C6.37546 9.57578 6.69027 9.89059 7.07858 9.89059H8.36388C8.07363 10.709 7.29209 11.2968 6.37546 11.2968C5.21236 11.2968 4.2661 10.3506 4.2661 9.18747C4.2661 8.02437 5.21236 7.07811 6.37546 7.07811C6.93889 7.07811 7.46858 7.29753 7.86701 7.69592C8.14156 7.97051 8.58677 7.97051 8.86136 7.69592C9.13591 7.42133 9.13591 6.97616 8.86136 6.70157C8.19734 6.03754 7.3145 5.67188 6.37546 5.67188C4.43696 5.67188 2.85986 7.24897 2.85986 9.18747C2.85986 11.126 4.43696 12.7031 6.37546 12.7031C8.31396 12.7031 9.89106 11.126 9.89106 9.18747C9.89106 8.79916 9.57625 8.48435 9.18794 8.48435Z" fill="#25364F"/>
<path d="M20.437 11.2968H18.3276V10.5937C18.3276 10.2054 18.0128 9.89056 17.6245 9.89056C17.2362 9.89056 16.9214 10.2054 16.9214 10.5937V11.2968H14.812C14.4237 11.2968 14.1089 11.6116 14.1089 11.9999C14.1089 12.3882 14.4237 12.703 14.812 12.703H18.8966C18.673 13.368 18.1926 14.156 17.6339 14.9143C17.5136 14.7518 17.3948 14.5856 17.2801 14.417C17.0618 14.0959 16.6245 14.0126 16.3034 14.231C15.9822 14.4493 15.899 14.8866 16.1173 15.2078C16.3146 15.4979 16.5214 15.7802 16.7275 16.0477C16.3761 16.4553 16.0298 16.8244 15.7258 17.123C15.4487 17.395 15.4444 17.8402 15.7164 18.1173C15.9872 18.3934 16.4324 18.3999 16.7107 18.1268C16.7349 18.1029 17.1184 17.7252 17.6306 17.1453C18.1304 17.7172 18.5046 18.0931 18.5336 18.1221C18.808 18.3965 19.2531 18.3967 19.5277 18.1222C19.8023 17.8477 19.8024 17.4025 19.528 17.1279C19.5207 17.1205 19.0902 16.6876 18.5409 16.047C19.5362 14.7604 20.143 13.6396 20.3532 12.703H20.4369C20.8252 12.703 21.14 12.3882 21.14 11.9999C21.14 11.6116 20.8253 11.2968 20.437 11.2968Z" fill="#25364F"/>
</svg>
