<svg width="14" height="15" viewBox="0 0 14 15" fill="none" xmlns="http://www.w3.org/2000/svg">
<path d="M7.67147 4.10263C7.30078 4.47251 6.7 4.47251 6.32932 4.10263C5.95875 3.73274 5.95875 3.13299 6.32932 2.7631C6.7 2.39322 7.30078 2.39322 7.67147 2.7631C8.04204 3.13299 8.04204 3.73274 7.67147 4.10263Z" fill="#25364F"/>
<path d="M8.96794 5.53698C8.85233 5.53698 8.73671 5.49285 8.64868 5.40448C8.47263 5.22821 8.47298 4.94258 8.64925 4.76665C9.00648 4.4101 9.20317 3.93611 9.20317 3.43202C9.20317 2.92793 9.00648 2.45395 8.64925 2.0974C8.47298 1.92135 8.47263 1.63584 8.64868 1.45945C8.82462 1.28317 9.11024 1.28283 9.28652 1.45888C9.81456 1.98589 10.1053 2.68655 10.1053 3.43202C10.1053 4.17738 9.81456 4.87816 9.28652 5.40517C9.1985 5.49308 9.08322 5.53698 8.96794 5.53698Z" fill="#25364F"/>
<path d="M9.98967 6.86596C9.87405 6.86596 9.75844 6.82183 9.67041 6.73358C9.49436 6.55719 9.4947 6.27168 9.67098 6.09563C10.3836 5.38436 10.7762 4.43878 10.7762 3.43299C10.7762 2.42721 10.3836 1.48163 9.67098 0.770359C9.4947 0.59431 9.49436 0.308799 9.67041 0.132408C9.84646 -0.0438696 10.132 -0.0442117 10.3082 0.131838C11.1917 1.01357 11.6783 2.18594 11.6782 3.43299C11.6782 4.68005 11.1917 5.85253 10.3082 6.73426C10.2202 6.82206 10.1049 6.86596 9.98967 6.86596Z" fill="#25364F"/>
<path d="M5.03104 5.53702C4.91576 5.53702 4.80048 5.49312 4.71234 5.40521C4.18431 4.8782 3.89355 4.17743 3.89355 3.43207C3.89355 2.68659 4.18431 1.98593 4.71234 1.45892C4.88862 1.28287 5.17425 1.2831 5.35018 1.45949C5.52623 1.63577 5.52589 1.92139 5.34961 2.09744C4.99238 2.45399 4.79569 2.92798 4.79569 3.43207C4.79569 3.93616 4.99238 4.41014 5.34961 4.76669C5.52589 4.94263 5.52623 5.22825 5.35018 5.40453C5.26216 5.49278 5.14654 5.53702 5.03104 5.53702Z" fill="#25364F"/>
<path d="M4.01044 6.86601C3.89505 6.86601 3.77977 6.82212 3.69175 6.7342C2.80831 5.85248 2.32178 4.6801 2.32178 3.43305C2.32178 2.18588 2.80831 1.01351 3.69175 0.131781C3.86803 -0.0441547 4.15365 -0.0439266 4.32959 0.132465C4.50563 0.308742 4.50529 0.594253 4.32902 0.770302C3.61638 1.48157 3.2238 2.42715 3.2238 3.43294C3.2238 4.43872 3.61638 5.38442 4.32902 6.09568C4.50529 6.27173 4.50563 6.55724 4.32959 6.73363C4.24156 6.82189 4.12594 6.86601 4.01044 6.86601Z" fill="#25364F"/>
<path d="M12.945 7.64563H1.05515C0.472391 7.64563 0 8.11802 0 8.70067V13.8897C0 14.4724 0.472391 14.9448 1.05515 14.9448H12.9448C13.5276 14.9448 14 14.4724 14 13.8897V8.70067C14 8.11802 13.5276 7.64563 12.945 7.64563ZM3.46978 13.591H1.80792C1.5589 13.591 1.35697 13.3891 1.35697 13.14V9.45047C1.35697 9.20145 1.5589 8.99941 1.80792 8.99941C2.05706 8.99941 2.25899 9.20134 2.25899 9.45047V12.6889H3.46978C3.71892 12.6889 3.92085 12.8908 3.92085 13.14C3.92085 13.3891 3.71892 13.591 3.46978 13.591ZM5.3183 13.14C5.3183 13.3891 5.11637 13.591 4.86723 13.591C4.61809 13.591 4.41616 13.3891 4.41616 13.14V9.45047C4.41616 9.20145 4.61809 8.99941 4.86723 8.99941C5.11637 8.99941 5.3183 9.20134 5.3183 9.45047V13.14ZM9.11339 9.58091L7.99951 13.2703C7.9994 13.2706 7.99928 13.271 7.99917 13.2713C7.87819 13.6842 7.26145 13.6741 7.13626 13.2713C7.13614 13.271 7.13603 13.2706 7.13591 13.2703L6.02204 9.58091C5.95009 9.34238 6.08498 9.09074 6.32351 9.01868C6.56182 8.94673 6.81369 9.08162 6.88564 9.32015L7.56771 11.5793L8.24979 9.32015C8.32185 9.08162 8.57349 8.94661 8.81203 9.01868C9.05045 9.09074 9.18545 9.34238 9.11339 9.58091ZM11.8883 10.6119C12.1375 10.6119 12.3394 10.8138 12.3394 11.063C12.3394 11.312 12.1375 11.514 11.8883 11.514H10.6083V12.6889H12.1313C12.3804 12.6889 12.5824 12.8908 12.5824 13.14C12.5824 13.3891 12.3804 13.591 12.1313 13.591H10.1573C9.90812 13.591 9.70618 13.3891 9.70618 13.14V9.45047C9.70618 9.20145 9.90812 8.99941 10.1573 8.99941H12.1921C12.4411 8.99941 12.6431 9.20134 12.6431 9.45047C12.6431 9.69961 12.4411 9.90154 12.1921 9.90154H10.6082V10.6119H11.8883Z" fill="#25364F"/>
</svg>
