<svg width="13" height="13" viewBox="0 0 13 13" fill="none" xmlns="http://www.w3.org/2000/svg">
<path d="M6.49976 0C4.21549 0 2.3103 1.84006 2.3103 4.18945C2.3103 5.08325 2.57888 5.88027 3.09434 6.62711L6.17915 11.4407C6.3288 11.6747 6.67102 11.6742 6.82036 11.4407L9.91855 6.61073C10.4229 5.89773 10.6892 5.06053 10.6892 4.18945C10.6892 1.87939 8.80982 0 6.49976 0ZM6.49976 6.09375C5.44978 6.09375 4.59546 5.23943 4.59546 4.18945C4.59546 3.13947 5.44978 2.28516 6.49976 2.28516C7.54973 2.28516 8.40405 3.13947 8.40405 4.18945C8.40405 5.23943 7.54973 6.09375 6.49976 6.09375Z" fill="#9BA0A8"/>
<path d="M9.47716 8.75195L7.55938 11.7503C7.06297 12.5242 5.93377 12.5217 5.43975 11.751L3.51885 8.75274C1.82874 9.1435 0.786865 9.85934 0.786865 10.7148C0.786865 12.1992 3.73035 12.9999 6.49976 12.9999C9.26916 12.9999 12.2126 12.1992 12.2126 10.7148C12.2126 9.85873 11.1693 9.14251 9.47716 8.75195Z" fill="#9BA0A8"/>
</svg>
