<svg width="11" height="15" viewBox="0 0 11 15" fill="none" xmlns="http://www.w3.org/2000/svg">
<path d="M5.48386 0C2.46003 0 0 2.50424 0 5.58238C0 7.30416 0.870822 9.394 2.58835 11.7938C3.84525 13.5501 5.08381 14.8027 5.13593 14.8552C5.23173 14.9516 5.35777 15 5.48395 15C5.60647 15 5.72907 14.9544 5.82411 14.8628C5.87635 14.8125 7.11804 13.6107 8.37731 11.8786C10.0962 9.51433 10.9678 7.39598 10.9678 5.58236C10.9677 2.50424 8.50762 0 5.48386 0ZM5.48386 7.99238C4.00554 7.99238 2.80287 6.78968 2.80287 5.31139C2.80287 3.83309 4.00556 2.6304 5.48386 2.6304C6.96215 2.6304 8.16485 3.83309 8.16485 5.31139C8.16485 6.78968 6.96212 7.99238 5.48386 7.99238Z" fill="#999999"/>
</svg>
