<svg width="14" height="15" viewBox="0 0 14 15" fill="none" xmlns="http://www.w3.org/2000/svg">
<path d="M13.918 5.08584L13.1837 4.10675L12.7754 6.96489C12.738 7.22671 12.6144 7.47393 12.4273 7.66099L7.39953 12.6888C6.96099 13.1274 6.37723 13.3689 5.75584 13.3689C5.57013 13.3689 5.38791 13.3469 5.21179 13.3049C5.47925 13.7231 5.94736 14.0011 6.47951 14.0011H12.4959C13.3253 14.0011 14.0001 13.3264 14.0001 12.497V5.33197C14.0001 5.24323 13.9713 5.15687 13.918 5.08584Z" fill="#25364F"/>
<path d="M8.4627 6.81405C8.68926 6.81405 8.87291 6.63039 8.87291 6.40383C8.87291 6.17728 8.68926 5.99362 8.4627 5.99362C8.23615 5.99362 8.05249 6.17728 8.05249 6.40383C8.05249 6.63039 8.23615 6.81405 8.4627 6.81405Z" fill="#25364F"/>
<path d="M3.82354 6.81405C4.0501 6.81405 4.23375 6.63039 4.23375 6.40383C4.23375 6.17728 4.0501 5.99362 3.82354 5.99362C3.59699 5.99362 3.41333 6.17728 3.41333 6.40383C3.41333 6.63039 3.59699 6.81405 3.82354 6.81405Z" fill="#25364F"/>
<path d="M6.82184 12.1105L11.85 7.08227C11.9128 7.0195 11.9535 6.93808 11.9661 6.85021L12.5463 2.78895C12.5645 2.66111 12.5216 2.53213 12.4302 2.44084L11.56 1.57057L10.3996 2.73094L10.6897 3.02104C10.8499 3.18123 10.8499 3.44099 10.6897 3.60121C10.6096 3.68132 10.5046 3.72138 10.3997 3.72138C10.2947 3.72138 10.1897 3.68132 10.1096 3.60121L8.94922 2.44084C8.789 2.28065 8.789 2.02088 8.94922 1.86067C9.1094 1.70048 9.36917 1.70048 9.52939 1.86067L9.81949 2.15077L10.9798 0.990394L10.1096 0.120122C10.0183 0.0288008 9.88929 -0.0140291 9.76145 0.00407651L5.70016 0.584276C5.61229 0.59683 5.53087 0.637554 5.4681 0.700321L0.439888 5.72853C-0.146629 6.31502 -0.146629 7.26937 0.439888 7.85586L4.69451 12.1105C4.98776 12.4038 5.37298 12.5503 5.75817 12.5503C6.14337 12.5503 6.52859 12.4038 6.82184 12.1105ZM8.46567 5.17467C9.1443 5.17467 9.69641 5.72678 9.69641 6.40542C9.69641 7.08405 9.1443 7.63616 8.46567 7.63616C7.78704 7.63616 7.23493 7.08405 7.23493 6.40542C7.23493 5.72678 7.78704 5.17467 8.46567 5.17467ZM3.82424 7.63616C3.14561 7.63616 2.5935 7.08405 2.5935 6.40542C2.5935 5.72678 3.14561 5.17467 3.82424 5.17467C4.50287 5.17467 5.05498 5.72678 5.05498 6.40542C5.05498 7.08405 4.5029 7.63616 3.82424 7.63616ZM5.17806 9.71666C5.13506 9.71666 5.0913 9.70985 5.04828 9.69552C4.83334 9.62386 4.71718 9.39155 4.78881 9.17658L6.72272 3.37478C6.79438 3.15984 7.02671 3.04368 7.24166 3.11531C7.4566 3.18697 7.57275 3.41928 7.50112 3.63425L5.56722 9.43605C5.50989 9.60792 5.34981 9.71666 5.17806 9.71666Z" fill="#25364F"/>
<path d="M12.4298 0.700252C12.59 0.540078 12.59 0.280332 12.4298 0.12013C12.2696 -0.0400435 12.0099 -0.0400435 11.8497 0.12013L10.9795 0.990326L11.5596 1.57045L12.4298 0.700252Z" fill="#25364F"/>
</svg>
