<svg width="15" height="14" viewBox="0 0 15 14" fill="none" xmlns="http://www.w3.org/2000/svg">
<path d="M10.8819 0.0916598C10.4675 -0.119159 9.96057 0.0460273 9.7498 0.460592L3.48811 12.7764C3.27735 13.1909 3.44253 13.6977 3.85704 13.9085C3.97929 13.9706 4.10956 14.0001 4.23793 14.0001C4.54473 14.0001 4.84047 13.8318 4.9891 13.5395L11.2508 1.22371C11.4616 0.809206 11.2964 0.302422 10.8819 0.0916598Z" fill="white"/>
<path d="M6.38619 4.14713C6.38619 2.38644 4.95373 0.953979 3.19304 0.953979C1.43246 0.953979 0 2.38644 0 4.14713C0 5.90777 1.43246 7.34023 3.19309 7.34023C4.95379 7.34023 6.38619 5.90777 6.38619 4.14713ZM3.19309 5.65637C2.36093 5.65637 1.68386 4.97929 1.68386 4.14713C1.68386 3.31491 2.36093 2.63784 3.19309 2.63784C4.02531 2.63784 4.70239 3.31486 4.70239 4.14713C4.70233 4.97929 4.02531 5.65637 3.19309 5.65637Z" fill="white"/>
<path d="M11.5847 6.65979C9.82405 6.65979 8.3916 8.09225 8.3916 9.85288C8.3916 11.6135 9.824 13.046 11.5847 13.046C13.3454 13.046 14.7778 11.6136 14.7778 9.85288C14.7778 8.09219 13.3454 6.65979 11.5847 6.65979ZM11.5847 11.3621C10.7525 11.3621 10.0755 10.685 10.0755 9.85283C10.0755 9.02067 10.7525 8.34359 11.5847 8.34359C12.4169 8.34359 13.094 9.02067 13.094 9.85283C13.094 10.685 12.417 11.3621 11.5847 11.3621Z" fill="white"/>
</svg>
