<svg width="8" height="13" viewBox="0 0 8 13" fill="none" xmlns="http://www.w3.org/2000/svg">
<path d="M7.91971 2.94529C7.86633 2.88989 7.79799 2.86224 7.71493 2.86224H6.19161C6.09057 2.35152 5.90052 1.90818 5.62141 1.53273H7.69702C7.7803 1.53273 7.84845 1.50505 7.90202 1.44978C7.95519 1.39442 7.9819 1.32356 7.9819 1.23741V0.295447C7.9819 0.209232 7.95522 0.138507 7.90202 0.0830784C7.84839 0.027779 7.78024 0 7.69696 0H0.285038C0.201851 0 0.133611 0.027779 0.0801289 0.083046C0.0268033 0.138475 0 0.2092 0 0.295415V1.52338C0 1.60339 0.0282073 1.67263 0.084622 1.7311C0.141037 1.78956 0.207842 1.8188 0.285038 1.8188H1.5768C2.82988 1.8188 3.62574 2.16647 3.96423 2.86208H0.285038C0.201851 2.86208 0.133517 2.88973 0.0801289 2.94513C0.0268033 3.00059 0 3.07128 0 3.15749V4.09933C0 4.18548 0.0266784 4.2563 0.0801289 4.31157C0.133611 4.36703 0.201976 4.39462 0.285038 4.39462H4.08913C3.95845 4.89949 3.65404 5.28413 3.17589 5.54882C2.6977 5.81354 2.06681 5.94591 1.28281 5.94591H0.285038C0.207842 5.94591 0.141037 5.97517 0.084622 6.03361C0.0281761 6.09211 0 6.16138 0 6.24132V7.41402C0 7.49416 0.0266784 7.56184 0.0801289 7.61718C1.22037 8.87283 2.69926 10.63 4.51661 12.8892C4.57012 12.9631 4.64432 13 4.73937 13H6.47649C6.60133 13 6.68752 12.9448 6.73488 12.8337C6.79426 12.723 6.78262 12.6183 6.69922 12.5198C4.96521 10.3161 3.60209 8.66654 2.61024 7.57093C3.6199 7.44785 4.43951 7.10923 5.06909 6.55536C5.69857 6.00143 6.08159 5.28112 6.21829 4.39478H7.71493C7.79799 4.39478 7.86636 4.36716 7.91971 4.31173C7.97323 4.25646 8 4.18564 8 4.09949V3.15775C8 3.07144 7.97323 3.00072 7.91971 2.94529Z" fill="#A6A6A6"/>
</svg>
