<svg width="12" height="12" viewBox="0 0 12 12" fill="none" xmlns="http://www.w3.org/2000/svg">
<path d="M9.75 7.78125C9.00898 7.78125 8.35598 8.12299 7.94583 8.6427L4.39975 6.94041C4.45863 6.75227 4.5 6.5573 4.5 6.35156C4.5 6.07252 4.43897 5.80723 4.33355 5.56322L8.04467 3.46959C8.45767 3.924 9.06472 4.21875 9.75 4.21875C10.9907 4.21875 12 3.27255 12 2.10938C12 0.946195 10.9907 0 9.75 0C8.50928 0 7.5 0.946195 7.5 2.10938C7.5 2.37743 7.55888 2.6317 7.65655 2.86777L3.93438 4.96753C3.52173 4.52663 2.92343 4.24219 2.25 4.24219C1.00927 4.24219 0 5.18838 0 6.35156C0 7.51474 1.00927 8.46094 2.25 8.46094C3.00325 8.46094 3.66728 8.10916 4.07588 7.57486L7.61028 9.27162C7.54518 9.46863 7.5 9.67383 7.5 9.89062C7.5 11.0538 8.50928 12 9.75 12C10.9907 12 12 11.0538 12 9.89062C12 8.72745 10.9907 7.78125 9.75 7.78125Z" fill="black"/>
</svg>
