<svg width="14" height="14" viewBox="0 0 14 14" fill="none" xmlns="http://www.w3.org/2000/svg">
<path d="M13.9802 4.96773C13.933 4.82225 13.8073 4.71623 13.6559 4.69427L9.40445 4.07646L7.50307 0.223955C7.43541 0.0868124 7.29573 0 7.14281 0C6.98986 0 6.8502 0.0868124 6.78251 0.223955L4.88106 4.07646L0.629648 4.69427C0.478337 4.71623 0.352578 4.82225 0.305328 4.9677C0.258052 5.11317 0.29748 5.27284 0.407007 5.37958L3.48328 8.37835L2.75718 12.6127C2.7313 12.7635 2.79328 12.9158 2.917 13.0057C2.987 13.0565 3.0699 13.0824 3.1532 13.0824C3.21716 13.0824 3.28134 13.0672 3.34011 13.0362L7.14278 11.037L10.9453 13.0362C11.0807 13.1074 11.2447 13.0955 11.3684 13.0057C11.4921 12.9158 11.5542 12.7634 11.5283 12.6127L10.802 8.37835L13.8786 5.37956C13.9881 5.27284 14.0275 5.11317 13.9802 4.96773Z" fill="#999999"/>
</svg>
