<svg width="15" height="14" viewBox="0 0 15 14" fill="none" xmlns="http://www.w3.org/2000/svg">
<path d="M14.2661 4.96773C14.2189 4.82225 14.0932 4.71623 13.9418 4.69427L9.69034 4.07646L7.78896 0.223955C7.7213 0.0868124 7.58162 0 7.4287 0C7.27575 0 7.13609 0.0868124 7.0684 0.223955L5.16695 4.07646L0.915537 4.69427C0.764225 4.71623 0.638467 4.82225 0.591217 4.9677C0.543941 5.11317 0.583369 5.27284 0.692895 5.37958L3.76917 8.37835L3.04306 12.6127C3.01719 12.7635 3.07917 12.9158 3.20289 13.0057C3.27288 13.0565 3.35579 13.0824 3.43909 13.0824C3.50305 13.0824 3.56723 13.0672 3.626 13.0362L7.42867 11.037L11.2312 13.0362C11.3666 13.1074 11.5306 13.0955 11.6543 13.0057C11.778 12.9158 11.84 12.7634 11.8142 12.6127L11.0879 8.37835L14.1645 5.37956C14.274 5.27284 14.3134 5.11317 14.2661 4.96773Z" fill="#ECA926"/>
</svg>
