<svg width="22" height="22" viewBox="0 0 22 22" fill="none" xmlns="http://www.w3.org/2000/svg">
<path d="M21.8602 10.5714C21.6636 10.3025 16.9808 3.98828 10.9999 3.98828C5.01902 3.98828 0.33593 10.3025 0.139606 10.5711C-0.0465352 10.8262 -0.0465352 11.1721 0.139606 11.4272C0.33593 11.696 5.01902 18.0103 10.9999 18.0103C16.9808 18.0103 21.6636 11.696 21.8602 11.4274C22.0466 11.1724 22.0466 10.8262 21.8602 10.5714ZM10.9999 16.5597C6.59434 16.5597 2.77867 12.3688 1.64914 10.9988C2.7772 9.62751 6.58489 5.43882 10.9999 5.43882C15.4052 5.43882 19.2206 9.62897 20.3506 10.9998C19.2226 12.371 15.4149 16.5597 10.9999 16.5597Z" fill="#A6A6A6"/>
<path d="M10.9997 6.64746C8.60021 6.64746 6.64801 8.59966 6.64801 10.9991C6.64801 13.3986 8.60021 15.3508 10.9997 15.3508C13.3991 15.3508 15.3513 13.3986 15.3513 10.9991C15.3513 8.59966 13.3991 6.64746 10.9997 6.64746ZM10.9997 13.9002C9.39995 13.9002 8.09859 12.5988 8.09859 10.9991C8.09859 9.39944 9.39999 8.09805 10.9997 8.09805C12.5994 8.09805 13.9008 9.39944 13.9008 10.9991C13.9008 12.5988 12.5994 13.9002 10.9997 13.9002Z" fill="#A6A6A6"/>
</svg>
